<?xml version="1.0" encoding="utf-8"?>
<!-- Generator: Adobe Illustrator 27.5.0, SVG Export Plug-In . SVG Version: 6.00 Build 0)  -->
<svg version="1.1" xmlns="http://www.w3.org/2000/svg" xmlns:xlink="http://www.w3.org/1999/xlink" x="0px" y="0px"
	 viewBox="0 0 3710 3710" style="enable-background:new 0 0 3710 3710;" xml:space="preserve">
<g id="Background">
	<g>
		<g>
			<rect style="fill:#FFFFFF;" width="3710" height="3710"/>
		</g>
	</g>
</g>
<g id="Illustration">
	<g>
		<linearGradient id="SVGID_1_" gradientUnits="userSpaceOnUse" x1="3398.6211" y1="3562.854" x2="1499.8741" y2="1541.6077">
			<stop  offset="0" style="stop-color:#B37CFF"/>
			<stop  offset="1" style="stop-color:#F895E7"/>
		</linearGradient>
		<path style="opacity:0.3;fill:url(#SVGID_1_);" d="M2828.524,2751.938c-70.094,72.25-132.812,114.722-180.83,146.784
			c-468.318,312.7-1003.657,222.573-1169.17,191.767c-267.035-49.701-492.45-84.763-686.122-259.737
			c-440.081-397.595-418.676-1227.009-82.401-1740.795c39.872-60.92,375.638-558.63,912.136-628.761
			c13.122-1.715,22.913-2.692,31.488-3.6c82.995-8.787,597.298-55.165,1016.661,296.177
			c60.03,50.293,156.635,141.008,246.219,279.364C3244.066,1539.03,3245.104,2322.544,2828.524,2751.938z"/>
		<g>
			<g>
				
					<linearGradient id="SVGID_00000067200764108931046100000012916038029030467748_" gradientUnits="userSpaceOnUse" x1="2764.106" y1="372.472" x2="2030.8634" y2="1202.0538" gradientTransform="matrix(-1 0 0 1 2910 0)">
					<stop  offset="0" style="stop-color:#A737D5"/>
					<stop  offset="1" style="stop-color:#EF497A"/>
				</linearGradient>
				<path style="fill:url(#SVGID_00000067200764108931046100000012916038029030467748_);" d="M999.468,1835.796
					c0,0,6.15-258.554-112.938-327.755c-119.087-69.201-345.515-112.465-354.002-483.724
					c-4.969-217.352-10.347-312.382-13.952-353.819c-1.406-16.164,12.958-29.211,28.902-26.208
					c112.786,21.247,479.178,108.701,555.995,358.78C1194.541,1299.541,999.468,1835.796,999.468,1835.796z"/>
				
					<linearGradient id="SVGID_00000041985417235851802630000006183096914236439963_" gradientUnits="userSpaceOnUse" x1="2495.3435" y1="961.1136" x2="167.161" y2="2625.6311" gradientTransform="matrix(-1 0 0 1 2910 0)">
					<stop  offset="0" style="stop-color:#CB236D"/>
					<stop  offset="1" style="stop-color:#4C246D"/>
				</linearGradient>
				<path style="fill:url(#SVGID_00000041985417235851802630000006183096914236439963_);" d="M634.704,747.585
					c123.805,110.417,266.963,305.831,343.267,501.246c9.795,32.205,38.445,100.694,50.886,222.38
					c11.112,101.488,5.588,208.731-7.886,279.72c-0.852,4.488-5.181,7.436-9.669,6.584c-7.717-1.464-6.691-9.764-6.621-9.502
					c15.388-121.287,9.001-272.249-26.26-408.46c-45.049-167.251-145.526-329.408-249.451-466.94l-10.695-13.543
					c-80.517-103.404-97.468-104.165-89.941-111.373C630.112,745.995,632.895,745.98,634.704,747.585z"/>
			</g>
			<g>
				
					<linearGradient id="SVGID_00000109010285034577158930000005635328090179436220_" gradientUnits="userSpaceOnUse" x1="2456.842" y1="1131.6844" x2="1932.332" y2="1784.6453" gradientTransform="matrix(-1 0 0 1 2910 0)">
					<stop  offset="0" style="stop-color:#A737D5"/>
					<stop  offset="1" style="stop-color:#EF497A"/>
				</linearGradient>
				<path style="fill:url(#SVGID_00000109010285034577158930000005635328090179436220_);" d="M1190.846,2332.901
					c16.112,7.9-152.533-204.172-205.362-537.247c-24.894-156.954-25.219-353.603-114.627-429.385
					c-74.411-63.071-327.623-23.252-410.473-8.12c-10.353,1.891-13.838,14.968-5.779,21.737
					c39.732,33.368,124.725,112.074,146.87,191.395c29.19,104.551,128.589,171.051,217.576,189.049
					c88.987,17.997,138.489,35.462,181.841,177.773C1044.244,2080.412,1145.065,2310.453,1190.846,2332.901z"/>
				
					<linearGradient id="SVGID_00000044136749798770811520000000335496508526859452_" gradientUnits="userSpaceOnUse" x1="2291.4297" y1="1452.3046" x2="969.4504" y2="2479.915" gradientTransform="matrix(-1 0 0 1 2910 0)">
					<stop  offset="0" style="stop-color:#CB236D"/>
					<stop  offset="1" style="stop-color:#4C246D"/>
				</linearGradient>
				<path style="fill:url(#SVGID_00000044136749798770811520000000335496508526859452_);" d="M576.909,1402.323
					c105.705,4.427,219.171,52.646,276.751,143.095l5.435,8.631c12.552,20.238,83.69,164.104,123.201,283.362
					c0.492,1.487-0.314,3.091-1.8,3.584c-2.525,0.836-3.79-1.943-3.549-1.697c-27.527-67.372-67.064-152.788-98.552-216.663
					c-33.768-69.701-57.4-116.904-134.424-162.118c-85.73-48.693-167.632-53.706-167.387-53.656c-1.25-0.128-2.16-1.245-2.032-2.495
					C574.674,1403.164,575.718,1402.276,576.909,1402.323z"/>
			</g>
		</g>
		<g>
			<g>
				
					<linearGradient id="SVGID_00000137837921207600852910000012637104710622397337_" gradientUnits="userSpaceOnUse" x1="1624.146" y1="2910.5249" x2="2183.248" y2="1233.2139">
					<stop  offset="0" style="stop-color:#2B3582"/>
					<stop  offset="1" style="stop-color:#150E42"/>
				</linearGradient>
				<path style="fill:url(#SVGID_00000137837921207600852910000012637104710622397337_);" d="M3067.793,2971.373
					c0,24.054-19.7,43.735-43.777,43.735H656.728c-24.077,0-43.777-19.681-43.777-43.735l-19.698-1360.415
					c0-24.054,28.34-71.014,80.278-67.485l2313.576-59.864c30.21-0.782,59.419,10.846,80.813,32.17
					c21.393,21.323,33.098,50.478,32.385,80.66L3067.793,2971.373z"/>
				
					<linearGradient id="SVGID_00000083075418316311231340000011198068182719144351_" gradientUnits="userSpaceOnUse" x1="3374.2571" y1="1450.1139" x2="-3638.364" y2="5311.6172">
					<stop  offset="0" style="stop-color:#FDF53F"/>
					<stop  offset="1" style="stop-color:#D93C65"/>
				</linearGradient>
				<path style="fill:url(#SVGID_00000083075418316311231340000011198068182719144351_);" d="M3024.574,2929.414
					c0,22.779-18.637,41.416-41.416,41.416H713.816c-22.779,0-41.416-18.637-41.416-41.416l-18.588-1234.997
					c2.189-74.319,67.346-101.03,106.844-99.453l2217.417-59.49c21.224-0.57,41.751,7.602,56.777,22.602
					c15.026,15,23.233,35.512,22.701,56.737L3024.574,2929.414z"/>
				<g>
					<path style="fill:#FFFFFF;" d="M696.925,2340.54c-2.132,0-3.876-1.712-3.907-3.851l-1.471-100.157
						c-0.031-2.158,1.693-3.933,3.851-3.965c2.087-0.116,3.934,1.693,3.965,3.851l1.471,100.157
						c0.031,2.158-1.693,3.933-3.851,3.965C696.964,2340.54,696.945,2340.54,696.925,2340.54z"/>
					<path style="fill:#FFFFFF;" d="M693.321,2095.105c-2.131,0-3.876-1.712-3.907-3.851l-5.633-383.597
						c0.117-25.788,8.068-46.389,23.632-61.304c28.28-27.097,72.496-25.736,74.363-25.664l708.064-19.002
						c2.137-0.193,3.953,1.643,4.012,3.801c0.057,2.158-1.645,3.954-3.802,4.011l-708.292,19.002
						c-2.013-0.08-43.025-1.336-68.937,23.496c-13.976,13.392-21.117,32.106-21.224,55.619l5.633,383.522
						c0.032,2.158-1.693,3.933-3.851,3.965C693.36,2095.105,693.34,2095.105,693.321,2095.105z"/>
				</g>
				<path style="opacity:0.23;fill:#FFFFFF;" d="M772.379,2860.903c2.376-102.074,1.491-1005.965-4.366-1084.029
					c-5.857-78.064,115.723-92.706,302.384-101.492s1761.599-43.567,1802.15-46.855c91.15-7.391,110.017,128.85,100.898,424.621
					c-6.851,222.208-18.206,588.26-23.431,756.597c-1.555,50.124-42.524,89.893-92.671,90.031
					c-378.995,1.042-1831.569,5.205-1928.268,8.084C817.797,2911.175,771.437,2901.377,772.379,2860.903z"/>
			</g>
			
				<linearGradient id="SVGID_00000054261378284806452000000016824562102119909018_" gradientUnits="userSpaceOnUse" x1="1760.009" y1="3638.8838" x2="1970.6992" y2="2486.8811">
				<stop  offset="0" style="stop-color:#2B3582"/>
				<stop  offset="1" style="stop-color:#150E42"/>
			</linearGradient>
			<path style="fill:url(#SVGID_00000054261378284806452000000016824562102119909018_);" d="M3200.072,3128.039H528.664
				c-32.871,0-59.765-26.895-59.765-59.765l0,0c0-32.871,26.894-59.765,59.765-59.765h2671.408
				c32.871,0,59.765,26.894,59.765,59.765l0,0C3259.837,3101.144,3232.943,3128.039,3200.072,3128.039z"/>
		</g>
		<g>
			
				<linearGradient id="SVGID_00000124852482353430953930000009837290830513864376_" gradientUnits="userSpaceOnUse" x1="2083.2598" y1="864.8551" x2="1663.3073" y2="3604.2371">
				<stop  offset="0" style="stop-color:#53D8FF"/>
				<stop  offset="0.2057" style="stop-color:#4DB9FD"/>
				<stop  offset="1" style="stop-color:#3840F7"/>
			</linearGradient>
			<path style="fill:url(#SVGID_00000124852482353430953930000009837290830513864376_);" d="M2671.174,656.777l-1587.999-9.722
				c-52.189-0.32-93.928,43.273-91.344,95.398l109.25,2256.167h1767.146l98.119-2015.763L2671.174,656.777z"/>
			
				<linearGradient id="SVGID_00000168802262495048262780000011182547823662502578_" gradientUnits="userSpaceOnUse" x1="2819.6057" y1="728.5219" x2="2443.6428" y2="1183.0443" gradientTransform="matrix(0.9994 0.0343 -0.0343 0.9994 56.5304 -41.0612)">
				<stop  offset="0" style="stop-color:#53D8FF"/>
				<stop  offset="0.2057" style="stop-color:#4DB9FD"/>
				<stop  offset="1" style="stop-color:#3840F7"/>
			</linearGradient>
			<path style="fill:url(#SVGID_00000168802262495048262780000011182547823662502578_);" d="M2737.206,973.191
				c-51.729-1.82-91.498-46.404-87.42-98.003l17.024-215.439l299.85,321.784L2737.206,973.191z"/>
			<g>
				<g>
					<path style="opacity:0.78;fill:#FFFFFF;" d="M1902.274,1089.934c130.516-0.636,631.564-3.971,758.087-4.817
						c15.959-0.107,28.577,16.487,27.884,36.626l0,0c-0.659,19.17-13.206,34.493-28.398,34.683l-757.758,9.454
						c-14.596,0.182-26.718-13.703-27.965-32.033l-0.316-4.637C1872.383,1108.25,1885.584,1090.015,1902.274,1089.934z"/>
				</g>
				<g>
					<path style="opacity:0.78;fill:#FFFFFF;" d="M1895.864,1248.191c130.516-0.636,631.564-3.971,758.087-4.817
						c15.959-0.107,28.577,16.487,27.885,36.626l0,0c-0.659,19.17-13.206,34.493-28.398,34.683l-757.758,9.454
						c-14.596,0.182-26.718-13.703-27.965-32.033l-0.315-4.637C1865.973,1266.507,1879.174,1248.272,1895.864,1248.191z"/>
				</g>
				<g>
					<path style="opacity:0.78;fill:#FFFFFF;" d="M1328.822,1471.222c220.161,0.155,1065.324-0.145,1278.743-0.225
						c26.92-0.01,48.771,16.668,48.288,36.813l0,0c-0.46,19.176-21.104,34.431-46.727,34.528l-1278.03,4.866
						c-24.618,0.094-45.541-13.872-48.268-32.219l-0.69-4.641C1279.019,1489.366,1300.669,1471.202,1328.822,1471.222z"/>
				</g>
				<g>
					<path style="opacity:0.78;fill:#FFFFFF;" d="M1318.65,1637.311c171.372-0.744,829.249-4.493,995.374-5.443
						c20.954-0.12,37.848,16.467,37.334,36.611l0,0c-0.49,19.175-16.665,34.512-36.61,34.714l-994.851,10.081
						c-19.163,0.194-35.353-13.684-37.349-32.017l-0.505-4.638C1279.759,1655.656,1296.736,1637.406,1318.65,1637.311z"/>
				</g>
				<g>
					<path style="opacity:0.78;fill:#FFFFFF;" d="M1326.657,1854.776c220.161,0.155,1065.324-0.145,1278.742-0.225
						c26.92-0.01,48.772,16.668,48.288,36.813l0,0c-0.46,19.176-21.104,34.431-46.727,34.528l-1278.03,4.866
						c-24.618,0.094-45.54-13.872-48.268-32.219l-0.69-4.641C1276.855,1872.92,1298.505,1854.756,1326.657,1854.776z"/>
				</g>
				<g>
					<path style="opacity:0.78;fill:#FFFFFF;" d="M1307.502,2023.63c172.182,0.313,833.171,0.624,1000.082,0.698
						c21.053,0.009,37.929,16.7,37.293,36.841l0,0c-0.605,19.172-16.947,34.409-36.987,34.488l-999.584,3.943
						c-19.254,0.076-35.438-13.902-37.336-32.247l-0.48-4.641C1268.32,2041.734,1285.485,2023.59,1307.502,2023.63z"/>
				</g>
				<g>
					<path style="opacity:0.78;fill:#FFFFFF;" d="M1315.803,2246.156c220.161,0.155,1065.324-0.145,1278.743-0.225
						c26.92-0.01,48.771,16.668,48.288,36.813l0,0c-0.46,19.176-21.104,34.431-46.727,34.528l-1278.03,4.866
						c-24.618,0.094-45.541-13.872-48.268-32.219l-0.69-4.641C1266,2264.3,1287.65,2246.136,1315.803,2246.156z"/>
				</g>
				<g style="opacity:0.74;">
					<path style="opacity:0.78;fill:#FFFFFF;" d="M1302.507,2413.013c172.182,0.314,833.171,0.624,1000.082,0.698
						c21.053,0.01,37.929,16.7,37.293,36.841l0,0c-0.605,19.172-16.947,34.409-36.987,34.488l-999.584,3.943
						c-19.254,0.076-35.438-13.902-37.336-32.247l-0.48-4.641C1263.324,2431.118,1280.489,2412.973,1302.507,2413.013z"/>
				</g>
				<path style="opacity:0.48;fill:#FFFFFF;" d="M1328.822,2632.989c220.161,0.155,1065.324-0.145,1278.743-0.225
					c26.92-0.01,48.771,16.668,48.288,36.813l0,0c-0.46,19.176-21.104,34.431-46.727,34.529l-1278.03,4.866
					c-24.618,0.094-45.541-13.872-48.268-32.219l-0.69-4.641C1279.019,2651.133,1300.669,2632.969,1328.822,2632.989z"/>
				<path style="opacity:0.36;fill:#FFFFFF;" d="M1316.367,2817.92c170.007,0.009,822.647-0.851,987.45-1.072
					c20.788-0.028,37.467,16.633,36.859,36.774l0,0c-0.579,19.173-16.699,34.438-36.486,34.553l-986.954,5.712
					c-19.011,0.11-35.005-13.839-36.896-32.181l-0.479-4.64C1277.697,2836.094,1294.628,2817.919,1316.367,2817.92z"/>
			</g>
			<g style="opacity:0.78;">
				<path style="fill:#FFFFFF;" d="M1477.392,1153.571l-53.385,161.681h-68.638l174.646-514.023h80.077l175.408,514.023h-70.926
					l-54.909-161.681H1477.392z M1645.936,1101.713l-50.334-147.954c-11.441-33.556-19.066-64.063-26.693-93.806h-1.526
					c-7.627,30.506-16.015,61.776-25.929,93.043l-50.334,148.717H1645.936z"/>
			</g>
		</g>
		<g>
			<g>
				
					<linearGradient id="SVGID_00000130612482679876871610000008854115609515826052_" gradientUnits="userSpaceOnUse" x1="1951.0503" y1="2109.3113" x2="1666.8906" y2="3474.2903">
					<stop  offset="0" style="stop-color:#18459F"/>
					<stop  offset="1" style="stop-color:#2874B5"/>
				</linearGradient>
				<path style="fill:url(#SVGID_00000130612482679876871610000008854115609515826052_);" d="M1661.817,3235.813
					c-1.528,0-3.081-0.334-4.576-1.033c-5.881-2.762-8.598-10.204-6.068-16.623l243.116-616.864
					c2.528-6.417,9.343-9.38,15.229-6.622c5.881,2.761,8.598,10.204,6.068,16.622l-243.116,616.864
					C1670.584,3232.945,1666.309,3235.813,1661.817,3235.813z"/>
				
					<linearGradient id="SVGID_00000157273672234556102080000008178627922889772455_" gradientUnits="userSpaceOnUse" x1="1980.5262" y1="2115.448" x2="1696.3677" y2="3480.4219">
					<stop  offset="0" style="stop-color:#18459F"/>
					<stop  offset="1" style="stop-color:#2874B5"/>
				</linearGradient>
				<path style="fill:url(#SVGID_00000157273672234556102080000008178627922889772455_);" d="M1935.697,3235.813
					c-4.492,0-8.768-2.866-10.654-7.656l-243.116-616.864c-2.53-6.418,0.187-13.861,6.068-16.622
					c5.877-2.761,12.698,0.201,15.229,6.622l243.116,616.864c2.53,6.419-0.187,13.861-6.068,16.623
					C1938.78,3235.479,1937.225,3235.813,1935.697,3235.813z"/>
				
					<linearGradient id="SVGID_00000050664086686721553190000001658811444650799538_" gradientUnits="userSpaceOnUse" x1="2942.9075" y1="2315.7952" x2="2658.748" y2="3680.7739">
					<stop  offset="0" style="stop-color:#18459F"/>
					<stop  offset="1" style="stop-color:#2874B5"/>
				</linearGradient>
				<path style="fill:url(#SVGID_00000050664086686721553190000001658811444650799538_);" d="M2696.659,3235.813
					c-1.528,0-3.081-0.334-4.575-1.033c-5.881-2.762-8.598-10.204-6.068-16.623l243.115-616.864c2.53-6.417,9.341-9.38,15.23-6.622
					c5.881,2.761,8.598,10.204,6.067,16.622l-243.115,616.864C2705.427,3232.945,2701.152,3235.813,2696.659,3235.813z"/>
				
					<linearGradient id="SVGID_00000078743133131253868720000007517472800800890516_" gradientUnits="userSpaceOnUse" x1="2972.3818" y1="2321.9309" x2="2688.2231" y2="3686.9048">
					<stop  offset="0" style="stop-color:#18459F"/>
					<stop  offset="1" style="stop-color:#2874B5"/>
				</linearGradient>
				<path style="fill:url(#SVGID_00000078743133131253868720000007517472800800890516_);" d="M2970.538,3235.813
					c-4.492,0-8.768-2.866-10.654-7.656l-243.116-616.864c-2.53-6.418,0.187-13.861,6.068-16.622
					c5.877-2.761,12.698,0.201,15.229,6.622l243.116,616.864c2.53,6.419-0.187,13.861-6.068,16.623
					C2973.621,3235.479,2972.066,3235.813,2970.538,3235.813z"/>
			</g>
			<g>
				
					<linearGradient id="SVGID_00000018199927016836420170000000884449618161322933_" gradientUnits="userSpaceOnUse" x1="2585.0303" y1="3385.1094" x2="2527.5195" y2="2749.1023">
					<stop  offset="0" style="stop-color:#FDF53F"/>
					<stop  offset="1" style="stop-color:#D93C65"/>
				</linearGradient>
				
					<rect x="2533.625" y="2820.132" style="fill:url(#SVGID_00000018199927016836420170000000884449618161322933_);" width="28.745" height="310.853"/>
				
					<linearGradient id="SVGID_00000034083000552729163880000000108951325255673262_" gradientUnits="userSpaceOnUse" x1="2570.5908" y1="3386.4133" x2="2513.0803" y2="2750.4102">
					<stop  offset="0" style="stop-color:#FDF53F"/>
					<stop  offset="1" style="stop-color:#D93C65"/>
				</linearGradient>
				<path style="fill:url(#SVGID_00000034083000552729163880000000108951325255673262_);" d="M2673.876,3136.978h-251.759v-1.351
					c0-9.587,7.772-17.359,17.359-17.359h215.689C2665.499,3118.268,2673.876,3126.645,2673.876,3136.978z"/>
				
					<linearGradient id="SVGID_00000049187065630038959230000003946306053790578867_" gradientUnits="userSpaceOnUse" x1="2606.1257" y1="3383.2014" x2="2548.615" y2="2747.1958">
					<stop  offset="0" style="stop-color:#FDF53F"/>
					<stop  offset="1" style="stop-color:#D93C65"/>
				</linearGradient>
				<path style="fill:url(#SVGID_00000049187065630038959230000003946306053790578867_);" d="M2711.24,2809.343
					c0,17.001-13.91,30.912-30.912,30.912h-254.715c-17.001,0-30.912-13.91-30.912-30.912v-27.951
					c0-17.001,13.91-30.912,30.912-30.912h254.715c17.001,0,30.912,13.91,30.912,30.912V2809.343z"/>
			</g>
			<g>
				
					<linearGradient id="SVGID_00000056413535111355250480000005500588369775630245_" gradientUnits="userSpaceOnUse" x1="2234.3047" y1="2867.8835" x2="2438.6873" y2="2867.8835">
					<stop  offset="0" style="stop-color:#F9B776"/>
					<stop  offset="1" style="stop-color:#F47960"/>
				</linearGradient>
				<path style="fill:url(#SVGID_00000056413535111355250480000005500588369775630245_);" d="M2335.792,2612.864
					c0,0-42.713,6.621-90.736,38.724c-7.558,5.052-11.704,13.86-10.565,22.879c5.75,45.549,29.394,192.979,107.358,336.974
					c4.111,7.593,5.293,16.432,3.479,24.873l-13.545,63.035l-25.119,23.553h64.701l43.079-116.581l-18.421-5.825
					c-14.282-4.516-24.082-17.653-24.341-32.631l-2.161-125.058c1.844-55.717-34.163-94.159-34.163-94.159l103.33-5.027
					L2335.792,2612.864z"/>
				
					<linearGradient id="SVGID_00000062163669909963127510000004653530518702799791_" gradientUnits="userSpaceOnUse" x1="2359.3584" y1="3001.0593" x2="2329.2971" y2="3462.0017">
					<stop  offset="0" style="stop-color:#CB236D"/>
					<stop  offset="1" style="stop-color:#4C246D"/>
				</linearGradient>
				<path style="fill:url(#SVGID_00000062163669909963127510000004653530518702799791_);" d="M2281.399,3134.275
					c-5.892,7.712,63.419,17.888,98.438,1.02c0,0,48.542-84.457,48.542-127.942c0,0-3.853-8.866-32.356-6.856
					c0,0-16.299,100.002-33.509,111.204c-17.211,11.202-48.151,1.133-48.151,1.133S2290.093,3122.897,2281.399,3134.275z"/>
				
					<linearGradient id="SVGID_00000142168373139233204480000007992226382688016553_" gradientUnits="userSpaceOnUse" x1="1994.3248" y1="2881.8447" x2="2425.6135" y2="2881.8447">
					<stop  offset="0" style="stop-color:#F9B776"/>
					<stop  offset="1" style="stop-color:#F47960"/>
				</linearGradient>
				<path style="fill:url(#SVGID_00000142168373139233204480000007992226382688016553_);" d="M2425.614,2750.481
					c-0.549-0.952-111.25-13.311-111.25-13.311s3.623,33.659-7.699,79.993c-11.323,46.334-173.855,247.08-173.855,247.08
					l17.042,54.025c-52.692,18.355-104.523,21.289-155.526,9.356l105.616-63.38c0,0,98.844-336.843,159.389-396.935l110.964-38.39
					L2425.614,2750.481z"/>
				
					<linearGradient id="SVGID_00000178899168925201260720000011003031973712480666_" gradientUnits="userSpaceOnUse" x1="2145.4229" y1="2656.8567" x2="2628.5898" y2="2656.8567">
					<stop  offset="0" style="stop-color:#2B3582"/>
					<stop  offset="1" style="stop-color:#150E42"/>
				</linearGradient>
				<path style="fill:url(#SVGID_00000178899168925201260720000011003031973712480666_);" d="M2673.876,2554.484
					c0,0,63.78,94.865,69.013,138.137c5.234,43.273-17.471,60.856-84.392,63.755c-66.922,2.9-245.575,2.854-245.575,2.854
					l-152.478-130.312c0,0,111.119-39.651,140.01-50.862C2429.345,2566.844,2673.876,2554.484,2673.876,2554.484z"/>
				
					<linearGradient id="SVGID_00000000932788722532139120000013124279953706116740_" gradientUnits="userSpaceOnUse" x1="2069.2686" y1="2982.1409" x2="2039.2073" y2="3443.0823">
					<stop  offset="0" style="stop-color:#CB236D"/>
					<stop  offset="1" style="stop-color:#4C246D"/>
				</linearGradient>
				<path style="fill:url(#SVGID_00000000932788722532139120000013124279953706116740_);" d="M2143.41,3100.074
					c0,0,18.347,17.771,5.954,37.543c0,0-145.344,25.762-184.806,14.073c0,0,8.193-18.702,52.629-39.99l-3.279,2.517
					c-4.149,3.185-1.715,9.82,3.507,9.522C2046.696,3122.071,2107.294,3116.706,2143.41,3100.074z"/>
			</g>
			<g>
				
					<linearGradient id="SVGID_00000178883763068695771960000017722687952460165290_" gradientUnits="userSpaceOnUse" x1="2351.1333" y1="1925.922" x2="2774.9343" y2="2299.3254">
					<stop  offset="0" style="stop-color:#2B3582"/>
					<stop  offset="1" style="stop-color:#150E42"/>
				</linearGradient>
				<path style="fill:url(#SVGID_00000178883763068695771960000017722687952460165290_);" d="M2456.583,1998.589
					c9.958-1.656,46.59-6.168,52.646,15.801c0.804,2.915,4.427,3.895,6.679,1.879c11.55-10.337,38.787-29.763,68.655-16.06
					c26.37,12.098,23.931,37.295,19.375,52.749c-1.1,3.732,2.972,6.836,6.199,4.663c23.007-15.494,76.023-43.164,109.983,2.446
					c31.669,42.532,5.838,72.057-11.545,85.475c-2.941,2.27-1.543,6.936,2.154,7.3c12.679,1.249,30.157,8.228,38.192,35.345
					c12.594,42.502-65.373,77.825-74.553,81.819c-0.582,0.253-1.198,0.359-1.832,0.327l-157.489-8.071
					c-1.227-0.063-2.363-0.671-3.096-1.658l-96.612-130.15c-0.781-1.053-1.015-2.415-0.629-3.668l38.637-125.351
					C2453.808,1999.945,2455.045,1998.844,2456.583,1998.589z"/>
				
					<linearGradient id="SVGID_00000115511987656832307160000016598744211042154638_" gradientUnits="userSpaceOnUse" x1="2020.7205" y1="3132.7473" x2="2710.854" y2="2165.2085">
					<stop  offset="0" style="stop-color:#A737D5"/>
					<stop  offset="1" style="stop-color:#EF497A"/>
				</linearGradient>
				<path style="fill:url(#SVGID_00000115511987656832307160000016598744211042154638_);" d="M2501.391,2541.926
					c0,0-74.272-70.722-110.832-117.564c-19.762-25.32-25.969-58.654-16.829-89.446c16.691-56.234,46.355-114.478,49.06-123.543
					c4.146-13.894,87.425-13.316,87.425-13.316s163.874,106.356,228.261,286.516l-72.31,22.512c0,0-42.788-71.784-85.065-117.423
					c0,0,73.154,96.639,75.73,136.2L2501.391,2541.926z"/>
				
					<linearGradient id="SVGID_00000072240678374437246280000001227411982791021751_" gradientUnits="userSpaceOnUse" x1="2478.7532" y1="2289.9128" x2="2457.1809" y2="2151.4915">
					<stop  offset="0" style="stop-color:#F9B776"/>
					<stop  offset="1" style="stop-color:#F47960"/>
				</linearGradient>
				<path style="fill:url(#SVGID_00000072240678374437246280000001227411982791021751_);" d="M2412.719,2133.719
					c0.869,2.888,22.605,74.946,24.305,76.442c1.7,1.496,47.668,3.968,69.305-10.82l-36.708-76.843L2412.719,2133.719z"/>
				<g>
					
						<linearGradient id="SVGID_00000082367523328481573380000003242738034178523064_" gradientUnits="userSpaceOnUse" x1="461.1998" y1="4055.3867" x2="651.7599" y2="4184.8237" gradientTransform="matrix(0.7443 -0.6678 0.6678 0.7443 -715.8221 -601.6025)">
						<stop  offset="0" style="stop-color:#F9B776"/>
						<stop  offset="1" style="stop-color:#F47960"/>
					</linearGradient>
					<path style="fill:url(#SVGID_00000082367523328481573380000003242738034178523064_);" d="M2351.29,2032.08
						c0,0-18.141,38.538-0.131,98.561c18.01,60.023,50.324,66.203,71.353,52.164c21.028-14.039,48.52-39.442,53.524-93.145
						C2481.041,2035.957,2376.14,1983.395,2351.29,2032.08z"/>
					
						<linearGradient id="SVGID_00000117640212437669001800000004483048226058795948_" gradientUnits="userSpaceOnUse" x1="2324.0403" y1="1956.6716" x2="2747.8398" y2="2330.074">
						<stop  offset="0" style="stop-color:#2B3582"/>
						<stop  offset="1" style="stop-color:#150E42"/>
					</linearGradient>
					<path style="fill:url(#SVGID_00000117640212437669001800000004483048226058795948_);" d="M2436.012,2084.901
						c0,0-33.368-81.518-88.767-33.127l-4.803,20.562c0,0-50.804-16.211-32.499-62.134c18.304-45.923,78.839-82.267,132.722-50.44
						c53.883,31.828,73.118,74.632,68.845,116.826c-4.274,42.194-35.513,26.73-35.513,26.73s-5.124-31.281-19.839-37.272
						c-14.716-5.991-15.135,17.551-15.135,17.551L2436.012,2084.901z"/>
					
						<linearGradient id="SVGID_00000161606868796803936850000009804893912435677353_" gradientUnits="userSpaceOnUse" x1="472.6223" y1="4038.5693" x2="663.1824" y2="4168.0063" gradientTransform="matrix(0.7443 -0.6678 0.6678 0.7443 -715.8221 -601.6025)">
						<stop  offset="0" style="stop-color:#F9B776"/>
						<stop  offset="1" style="stop-color:#F47960"/>
					</linearGradient>
					<path style="fill:url(#SVGID_00000161606868796803936850000009804893912435677353_);" d="M2448.322,2086.27
						c0,0-17.398-41.803,8.83-42.472c26.228-0.669,14.283,40.22,8.594,55.097L2448.322,2086.27z"/>
				</g>
				
					<linearGradient id="SVGID_00000108275216925813004980000000821119924649704638_" gradientUnits="userSpaceOnUse" x1="2602.5984" y1="2529.5901" x2="3007.7419" y2="2529.5901">
					<stop  offset="0" style="stop-color:#F9B776"/>
					<stop  offset="1" style="stop-color:#F47960"/>
				</linearGradient>
				<path style="fill:url(#SVGID_00000108275216925813004980000000821119924649704638_);" d="M2350.082,2547.177l54.568-52.597
					l75.489,31.89c0,0,75.141,11.642,118.147,0c43.006-11.642,43.006-11.642,43.006-11.642l97.184-30.256l15.263,43.137
					c3.875,10.952-0.019,23.111-9.489,29.84c-8.408,5.974-18.263,12.541-24.545,15.289c-12.798,5.599-315.492-3.873-315.492-3.873
					L2350.082,2547.177z"/>
			</g>
			<g>
				
					<linearGradient id="SVGID_00000061442404281372465560000006757728446274710437_" gradientUnits="userSpaceOnUse" x1="2522.8552" y1="2670.7341" x2="2267.8142" y2="2740.634" gradientTransform="matrix(0.9988 -0.0494 0.0494 0.9988 -41.469 -55.0328)">
					<stop  offset="0" style="stop-color:#2B3582"/>
					<stop  offset="1" style="stop-color:#150E42"/>
				</linearGradient>
				<path style="fill:url(#SVGID_00000061442404281372465560000006757728446274710437_);" d="M2556.588,2571.973
					c-0.242,0.012-0.484,0.019-0.728,0.017l-316.544-0.345c-7.825-0.007-14.162-6.357-14.154-14.182
					c0.008-7.828,6.381-14.294,14.185-14.154l316.544,0.345c7.825,0.007,14.162,6.357,14.154,14.182
					C2570.036,2565.417,2564.074,2571.602,2556.588,2571.973z"/>
				
					<linearGradient id="SVGID_00000141447235813139460330000008373361814346309512_" gradientUnits="userSpaceOnUse" x1="2265.1072" y1="2323.1086" x2="2084.144" y2="2514.3757">
					<stop  offset="0" style="stop-color:#2B3582"/>
					<stop  offset="1" style="stop-color:#150E42"/>
				</linearGradient>
				<path style="fill:url(#SVGID_00000141447235813139460330000008373361814346309512_);" d="M1954.757,2284.57h263.62
					c19.447,0,37.148,11.223,45.443,28.812l121.871,258.422h-327.609c-12.533,0-23.793-7.658-28.399-19.313l-94.506-239.13
					C1929.717,2299.543,1939.9,2284.57,1954.757,2284.57z"/>
				
					<linearGradient id="SVGID_00000102530636132687050300000016040709140716612244_" gradientUnits="userSpaceOnUse" x1="2155.7068" y1="2370.7324" x2="2073.5967" y2="2494.3806">
					<stop  offset="0" style="stop-color:#53D8FF"/>
					<stop  offset="1" style="stop-color:#3840F7"/>
				</linearGradient>
				<path style="fill:url(#SVGID_00000102530636132687050300000016040709140716612244_);" d="M2140.48,2417.071
					c5.713,17.749,1.493,34.986-9.426,38.5s-24.401-8.025-30.114-25.773c-5.713-17.749-1.492-34.986,9.426-38.5
					C2121.284,2387.783,2134.767,2399.322,2140.48,2417.071z"/>
			</g>
			
				<linearGradient id="SVGID_00000178908121007943678000000007720487672253875880_" gradientUnits="userSpaceOnUse" x1="2254.7776" y1="2661.0779" x2="1970.6184" y2="4026.0544">
				<stop  offset="0" style="stop-color:#18459F"/>
				<stop  offset="1" style="stop-color:#2874B5"/>
			</linearGradient>
			<path style="fill:url(#SVGID_00000178908121007943678000000007720487672253875880_);" d="M2998.996,2583.536
				c0.8-3.589-0.289-7.3-2.968-10.119c-2.678-2.82-6.667-4.453-10.876-4.453h-1425.72c-5.535,0-10.688,2.45-13.67,6.5
				c-2.982,4.049-3.382,9.14-1.061,13.504l15.45,29.041c3.538,6.651,11.203,10.909,19.639,10.909H2975.37
				c7.847,0,14.592-4.833,16.082-11.524L2998.996,2583.536z"/>
		</g>
	</g>
</g>
</svg>
